# xmcd
#
# Track frame offsets:
#	150
#	17211
#	36135
#	52511
#	66522
#	81160
#	94812
#	107784
#	127707
#	137681
#	155482
#	167823
#	182036
#	192262
#	197620
#
# Disc length: 2770 seconds
#
# Revision: 1
# Processed by: cddbd v1.5.2PL0 Copyright (c) Steve Scherf et al.
# Submitted via: audiograbber 1.83.01
#
DISCID=c30ad00f
DTITLE=The Matches - A Band In Hope
DYEAR=2008
DGENRE=rock
TTITLE0=A.M. Tilts
TTITLE1=Their City
TTITLE2=Wake The Sun
TTITLE3=Darkness Rising
TTITLE4=To Build A Mountain
TTITLE5=We Are One
TTITLE6=Point Me Toward The Morning
TTITLE7=From 24C
TTITLE8=Clouds Crash
TTITLE9=Between Halloweens
TTITLE10=If I Were You
TTITLE11=Future Tense
TTITLE12=Yankee In A Chip Shop
TTITLE13=Proctor Rd.
TTITLE14=Yankee In A Chip Shop Remix
EXTD=
EXTT0=
EXTT1=
EXTT2=
EXTT3=
EXTT4=
EXTT5=
EXTT6=
EXTT7=
EXTT8=
EXTT9=
EXTT10=
EXTT11=
EXTT12=
EXTT13=
EXTT14=
PLAYORDER=
